solid mic_mont
facet normal 1.0 -0.0 -0.0
   outer loop
      vertex 30.0 24.0258173602618 14.3791550576287
      vertex 30.0 24.843368787882 17.7819820049674
      vertex 30.0 22.7419642301163 16.5243173219378
   endloop
endfacet
facet normal 1.0 -0.0 -0.0
   outer loop
      vertex 30.0 24.843368787882 17.7819820049674
      vertex 30.0 24.0258173602618 14.3791550576287
      vertex 30.0 25.1001394139111 17.3529495521056
   endloop
endfacet
facet normal 1.0 -0.0 -0.0
   outer loop
      vertex 30.0 25.1001394139111 17.3529495521056
      vertex 30.0 24.0258173602618 14.3791550576287
      vertex 30.0 43.3760354455872 25.9600216760534
   endloop
endfacet
facet normal 1.0 -0.0 -0.0
   outer loop
      vertex 30.0 25.1001394139111 17.3529495521056
      vertex 30.0 43.3760354455872 25.9600216760534
      vertex 30.0 38.0586284128526 25.1084452272099
   endloop
endfacet
facet normal 1.0 -0.0 -0.0
   outer loop
      vertex 30.0 38.0586284128526 25.1084452272099
      vertex 30.0 43.3760354455872 25.9600216760534
      vertex 30.0 42.0921823154418 28.1051839403625
   endloop
endfacet
facet normal 1.0 -0.0 -0.0
   outer loop
      vertex 30.0 42.0921823154418 28.1051839403625
      vertex 30.0 37.8018577868236 25.5374776800717
      vertex 30.0 38.0586284128526 25.1084452272099
   endloop
endfacet
facet normal -1.0 0.0 0.0
   outer loop
      vertex 42.0 42.0921823154418 28.1051839403625
      vertex 42.0 38.0586284128526 25.1084452272099
      vertex 42.0 37.8018577868236 25.5374776800717
   endloop
endfacet
facet normal -1.0 0.0 0.0
   outer loop
      vertex 42.0 24.843368787882 17.7819820049674
      vertex 42.0 24.0258173602618 14.3791550576287
      vertex 42.0 22.7419642301163 16.5243173219378
   endloop
endfacet
facet normal -1.0 0.0 0.0
   outer loop
      vertex 42.0 24.0258173602618 14.3791550576287
      vertex 42.0 24.843368787882 17.7819820049674
      vertex 42.0 25.1001394139111 17.3529495521056
   endloop
endfacet
facet normal -1.0 0.0 0.0
   outer loop
      vertex 42.0 24.0258173602618 14.3791550576287
      vertex 42.0 25.1001394139111 17.3529495521056
      vertex 42.0 43.3760354455872 25.9600216760534
   endloop
endfacet
facet normal -1.0 0.0 0.0
   outer loop
      vertex 42.0 43.3760354455872 25.9600216760534
      vertex 42.0 25.1001394139111 17.3529495521056
      vertex 42.0 38.0586284128526 25.1084452272099
   endloop
endfacet
facet normal -1.0 0.0 0.0
   outer loop
      vertex 42.0 43.3760354455872 25.9600216760534
      vertex 42.0 38.0586284128526 25.1084452272099
      vertex 42.0 42.0921823154418 28.1051839403625
   endloop
endfacet
facet normal -1.0 0.0 0.0
   outer loop
      vertex 43.5 25.7155040194854 19.2362745771001
      vertex 43.5 22.7419642301163 16.5243173219378
      vertex 43.5 22.3311312284698 17.2107692465168
   endloop
endfacet
facet normal -1.0 0.0 0.0
   outer loop
      vertex 43.5 22.7419642301163 16.5243173219378
      vertex 43.5 25.7155040194854 19.2362745771001
      vertex 43.5 26.1263370211319 18.5498226525212
   endloop
endfacet
facet normal 1.0 -0.0 -0.0
   outer loop
      vertex 28.5 36.5188895535736 24.7696370325179
      vertex 28.5 41.6813493137953 28.7916358649414
      vertex 28.5 36.1080565519271 25.4560889570968
   endloop
endfacet
facet normal 1.0 -0.0 -0.0
   outer loop
      vertex 28.5 41.6813493137953 28.7916358649414
      vertex 28.5 36.5188895535736 24.7696370325179
      vertex 28.5 42.0921823154418 28.1051839403625
   endloop
endfacet
facet normal 3.68935418546544e-015 -0.513541252058162 0.858064905723649
   outer loop
      vertex 28.6779841160146 36.7161900133407 24.887718921737
      vertex 28.5 42.0921823154418 28.1051839403625
      vertex 28.5 36.5188895535736 24.7696370325179
   endloop
endfacet
facet normal 1.11652064354267e-016 -0.513541252058163 0.858064905723649
   outer loop
      vertex 28.5 42.0921823154418 28.1051839403625
      vertex 28.6779841160146 36.7161900133407 24.887718921737
      vertex 30.0 42.0921823154418 28.1051839403625
   endloop
endfacet
facet normal -2.37894825468956e-014 -0.513541252058158 0.858064905723652
   outer loop
      vertex 30.0 42.0921823154418 28.1051839403625
      vertex 28.6779841160146 36.7161900133407 24.887718921737
      vertex 29.3514692309197 37.3241340946571 25.2515659484806
   endloop
endfacet
facet normal -4.68916047862505e-016 -0.513541252058161 0.85806490572365
   outer loop
      vertex 30.0 42.0921823154418 28.1051839403625
      vertex 29.3514692309197 37.3241340946571 25.2515659484806
      vertex 30.0 37.8018577868236 25.5374776800717
   endloop
endfacet
facet normal -1.40863231841286e-016 -0.513541252058171 0.858064905723644
   outer loop
      vertex 30.0 22.7419642301163 16.5243173219378
      vertex 28.5 26.126337021132 18.5498226525212
      vertex 28.5 22.7419642301163 16.5243173219378
   endloop
endfacet
facet normal -7.7330282872875e-014 -0.513541252058195 0.85806490572363
   outer loop
      vertex 28.5 26.126337021132 18.5498226525212
      vertex 30.0 22.7419642301163 16.5243173219378
      vertex 28.6779841160146 25.9290365613649 18.4317407633022
   endloop
endfacet
facet normal 2.01352282031204e-015 -0.513541252058172 0.858064905723643
   outer loop
      vertex 28.6779841160146 25.9290365613649 18.4317407633022
      vertex 30.0 22.7419642301163 16.5243173219378
      vertex 29.3514692309197 25.3210924800485 18.0678937365585
   endloop
endfacet
facet normal -6.10809898717756e-015 -0.513541252058174 0.858064905723642
   outer loop
      vertex 29.3514692309197 25.3210924800485 18.0678937365585
      vertex 30.0 22.7419642301163 16.5243173219378
      vertex 30.0 24.843368787882 17.7819820049674
   endloop
endfacet
facet normal -9.1342881315787e-017 -0.513541252058174 0.858064905723642
   outer loop
      vertex 43.5 22.7419642301163 16.5243173219378
      vertex 42.0 24.843368787882 17.7819820049674
      vertex 42.0 22.7419642301163 16.5243173219378
   endloop
endfacet
facet normal 3.77805585178446e-015 -0.513541252058172 0.858064905723643
   outer loop
      vertex 42.0 24.843368787882 17.7819820049674
      vertex 43.5 22.7419642301163 16.5243173219378
      vertex 42.6485307690804 25.3210924800485 18.0678937365585
   endloop
endfacet
facet normal -5.35598667778643e-016 -0.513541252058173 0.858064905723643
   outer loop
      vertex 42.6485307690804 25.3210924800485 18.0678937365585
      vertex 43.5 22.7419642301163 16.5243173219378
      vertex 43.3220158839855 25.9290365613649 18.4317407633022
   endloop
endfacet
facet normal 1.00050133965414e-014 -0.513541252058173 0.858064905723643
   outer loop
      vertex 43.3220158839855 25.9290365613649 18.4317407633022
      vertex 43.5 22.7419642301163 16.5243173219378
      vertex 43.5 26.1263370211319 18.5498226525212
   endloop
endfacet
facet normal 4.68916047862505e-016 -0.513541252058161 0.85806490572365
   outer loop
      vertex 42.6485307690804 37.3241340946571 25.2515659484806
      vertex 42.0 42.0921823154418 28.1051839403625
      vertex 42.0 37.8018577868236 25.5374776800717
   endloop
endfacet
facet normal 1.77424164491249e-017 -0.513541252058161 0.85806490572365
   outer loop
      vertex 42.0 42.0921823154418 28.1051839403625
      vertex 42.6485307690804 37.3241340946571 25.2515659484806
      vertex 43.5 42.0921823154418 28.1051839403625
   endloop
endfacet
facet normal 1.82761015231363e-014 -0.513541252058163 0.858064905723649
   outer loop
      vertex 43.5 42.0921823154418 28.1051839403625
      vertex 42.6485307690804 37.3241340946571 25.2515659484806
      vertex 43.3220158839855 36.7161900133407 24.887718921737
   endloop
endfacet
facet normal -1.47574167418627e-014 -0.513541252058162 0.858064905723649
   outer loop
      vertex 43.5 42.0921823154418 28.1051839403625
      vertex 43.3220158839855 36.7161900133407 24.887718921737
      vertex 43.5 36.5188895535736 24.7696370325179
   endloop
endfacet
facet normal -0.790775736937708 0.525226662207643 0.314341672669793
   outer loop
      vertex 43.9203672076502 26.1814930369189 19.5151632507446
      vertex 43.5 26.1263370211319 18.5498226525212
      vertex 43.5 25.7155040194854 19.2362745771001
   endloop
endfacet
facet normal -0.790775736937728 0.525226662207606 0.314341672669804
   outer loop
      vertex 43.5 26.1263370211319 18.5498226525212
      vertex 43.9203672076502 26.1814930369189 19.5151632507446
      vertex 43.5 26.383107647161 18.1207901996594
   endloop
endfacet
facet normal -0.790775736937704 0.525226662207643 0.314341672669802
   outer loop
      vertex 43.5 26.383107647161 18.1207901996594
      vertex 43.9203672076502 26.1814930369189 19.5151632507446
      vertex 43.9203672076502 26.8490966645945 18.3996788733039
   endloop
endfacet
facet normal -0.848644257494746 0.453885453652422 0.271644840157008
   outer loop
      vertex 44.4374448457952 26.8933216623933 19.9411838945661
      vertex 43.9203672076502 26.8490966645945 18.3996788733039
      vertex 43.9203672076502 26.1814930369189 19.5151632507446
   endloop
endfacet
facet normal -0.848644257494762 0.453885453652389 0.271644840157015
   outer loop
      vertex 43.9203672076502 26.8490966645945 18.3996788733039
      vertex 44.4374448457952 26.8933216623933 19.9411838945661
      vertex 44.4374448457952 27.5609252900689 18.8256995171253
   endloop
endfacet
facet normal -0.897804539570741 0.377886766137544 0.226160563990007
   outer loop
      vertex 44.8679428821353 27.6463851111863 20.3918830710418
      vertex 44.4374448457952 27.5609252900689 18.8256995171253
      vertex 44.4374448457952 26.8933216623933 19.9411838945661
   endloop
endfacet
facet normal -0.897804539570741 0.377886766137544 0.226160563990007
   outer loop
      vertex 44.4374448457952 27.5609252900689 18.8256995171253
      vertex 44.8679428821353 27.6463851111863 20.3918830710418
      vertex 44.8679428821353 28.3139887388619 19.2763986936011
   endloop
endfacet
facet normal -0.937752132147082 0.298010449039612 0.178355574392309
   outer loop
      vertex 45.2074438242605 28.4329559332555 20.8626359967278
      vertex 44.8679428821353 28.3139887388619 19.2763986936011
      vertex 44.8679428821353 27.6463851111863 20.3918830710418
   endloop
endfacet
facet normal -0.937752132147077 0.298010449039629 0.178355574392307
   outer loop
      vertex 44.8679428821353 28.3139887388619 19.2763986936011
      vertex 45.2074438242605 28.4329559332555 20.8626359967278
      vertex 45.2074438242605 29.1005595609311 19.747151619287
   endloop
endfacet
facet normal -0.968077118866205 0.215076141461973 0.128720415247689
   outer loop
      vertex 45.4524639330866 29.2449628475662 21.3486121095759
      vertex 45.2074438242605 29.1005595609311 19.747151619287
      vertex 45.2074438242605 28.4329559332555 20.8626359967278
   endloop
endfacet
facet normal -0.968077118866205 0.215076141461974 0.128720415247688
   outer loop
      vertex 45.2074438242605 29.1005595609311 19.747151619287
      vertex 45.4524639330866 29.2449628475662 21.3486121095759
      vertex 45.4524639330866 29.9125664752418 20.2331277321352
   endloop
endfacet
facet normal -0.988468324328112 0.129934861628406 0.0777644104560823
   outer loop
      vertex 45.6004889707318 30.0740735643565 21.8448246370377
      vertex 45.4524639330866 29.9125664752418 20.2331277321352
      vertex 45.4524639330866 29.2449628475662 21.3486121095759
   endloop
endfacet
facet normal -0.988468324328112 0.129934861628399 0.0777644104560831
   outer loop
      vertex 45.4524639330866 29.9125664752418 20.2331277321352
      vertex 45.6004889707318 30.0740735643565 21.8448246370377
      vertex 45.6004889707318 30.7416771920322 20.729340259597
   endloop
endfacet
facet normal -0.998716507171053 0.0434602742845737 0.0260104375811399
   outer loop
      vertex 45.65 30.9117802857063 22.3461817670985
      vertex 45.6004889707318 30.7416771920322 20.729340259597
      vertex 45.6004889707318 30.0740735643565 21.8448246370377
   endloop
endfacet
facet normal -0.998716507171053 0.0434602742845735 0.02601043758114
   outer loop
      vertex 45.6004889707318 30.7416771920322 20.729340259597
      vertex 45.65 30.9117802857063 22.3461817670985
      vertex 45.65 31.5793839133819 21.2306973896578
   endloop
endfacet
facet normal -0.998716507171053 -0.0434602742845733 -0.0260104375811398
   outer loop
      vertex 45.6004889707318 31.749487007056 22.8475388971593
      vertex 45.65 31.5793839133819 21.2306973896578
      vertex 45.65 30.9117802857063 22.3461817670985
   endloop
endfacet
facet normal -0.998716507171053 -0.0434602742845732 -0.0260104375811399
   outer loop
      vertex 45.65 31.5793839133819 21.2306973896578
      vertex 45.6004889707318 31.749487007056 22.8475388971593
      vertex 45.6004889707318 32.4170906347316 21.7320545197185
   endloop
endfacet
facet normal -0.988468324328112 -0.129934861628404 -0.0777644104560861
   outer loop
      vertex 45.4524639330866 32.5785977238463 23.343751424621
      vertex 45.6004889707318 32.4170906347316 21.7320545197185
      vertex 45.6004889707318 31.749487007056 22.8475388971593
   endloop
endfacet
facet normal -0.988468324328112 -0.129934861628404 -0.0777644104560861
   outer loop
      vertex 45.6004889707318 32.4170906347316 21.7320545197185
      vertex 45.4524639330866 32.5785977238463 23.343751424621
      vertex 45.4524639330866 33.246201351522 22.2282670471803
   endloop
endfacet
facet normal -0.968077118866206 -0.215076141461967 -0.128720415247692
   outer loop
      vertex 45.2074438242605 33.390604638157 23.8297275374692
      vertex 45.4524639330866 33.246201351522 22.2282670471803
      vertex 45.4524639330866 32.5785977238463 23.343751424621
   endloop
endfacet
facet normal -0.968077118866206 -0.215076141461965 -0.128720415247692
   outer loop
      vertex 45.4524639330866 33.246201351522 22.2282670471803
      vertex 45.2074438242605 33.390604638157 23.8297275374692
      vertex 45.2074438242605 34.0582082658326 22.7142431600285
   endloop
endfacet
facet normal -0.937752132147079 -0.29801044903962 -0.178355574392313
   outer loop
      vertex 44.8679428821353 34.1771754602262 24.3004804631552
      vertex 45.2074438242605 34.0582082658326 22.7142431600285
      vertex 45.2074438242605 33.390604638157 23.8297275374692
   endloop
endfacet
facet normal -0.937752132147078 -0.298010449039623 -0.178355574392313
   outer loop
      vertex 45.2074438242605 34.0582082658326 22.7142431600285
      vertex 44.8679428821353 34.1771754602262 24.3004804631552
      vertex 44.8679428821353 34.8447790879019 23.1849960857144
   endloop
endfacet
facet normal -0.897804539570748 -0.377886766137535 -0.226160563989998
   outer loop
      vertex 44.4374448457952 34.9302389090192 24.7511796396309
      vertex 44.8679428821353 34.8447790879019 23.1849960857144
      vertex 44.8679428821353 34.1771754602262 24.3004804631552
   endloop
endfacet
facet normal -0.897804539570746 -0.377886766137539 -0.226160563989997
   outer loop
      vertex 44.8679428821353 34.8447790879019 23.1849960857144
      vertex 44.4374448457952 34.9302389090192 24.7511796396309
      vertex 44.4374448457952 35.5978425366949 23.6356952621902
   endloop
endfacet
facet normal -0.848644257494744 -0.453885453652417 -0.271644840157024
   outer loop
      vertex 43.9203672076502 35.6420675344937 25.1772002834524
      vertex 44.4374448457952 35.5978425366949 23.6356952621902
      vertex 44.4374448457952 34.9302389090192 24.7511796396309
   endloop
endfacet
facet normal -0.848644257494745 -0.453885453652414 -0.271644840157024
   outer loop
      vertex 44.4374448457952 35.5978425366949 23.6356952621902
      vertex 43.9203672076502 35.6420675344937 25.1772002834524
      vertex 43.9203672076502 36.3096711621693 24.0617159060116
   endloop
endfacet
facet normal -0.790775736937692 -0.525226662207646 -0.314341672669828
   outer loop
      vertex 43.5 36.1080565519271 25.4560889570968
      vertex 43.9203672076502 36.3096711621693 24.0617159060116
      vertex 43.9203672076502 35.6420675344937 25.1772002834524
   endloop
endfacet
facet normal -0.790775736937709 -0.52522666220762 -0.314341672669829
   outer loop
      vertex 43.9203672076502 36.3096711621693 24.0617159060116
      vertex 43.5 36.1080565519271 25.4560889570968
      vertex 43.5 36.5188895535736 24.7696370325179
   endloop
endfacet
facet normal -0.790775736937696 -0.525226662207649 -0.314341672669813
   outer loop
      vertex 43.9203672076502 36.3096711621693 24.0617159060116
      vertex 43.5 36.5188895535736 24.7696370325179
      vertex 43.5 36.7756601796027 24.3406045796561
   endloop
endfacet
facet normal -1.0 0.0 0.0
   outer loop
      vertex 43.5 41.6813493137953 28.7916358649414
      vertex 43.5 36.5188895535736 24.7696370325179
      vertex 43.5 36.1080565519271 25.4560889570968
   endloop
endfacet
facet normal -1.0 0.0 0.0
   outer loop
      vertex 43.5 36.5188895535736 24.7696370325179
      vertex 43.5 41.6813493137953 28.7916358649414
      vertex 43.5 42.0921823154418 28.1051839403625
   endloop
endfacet
facet normal 0.790775736937689 -0.525226662207648 -0.314341672669832
   outer loop
      vertex 28.0796327923498 36.3096711621693 24.0617159060117
      vertex 28.5 36.1080565519271 25.4560889570968
      vertex 28.0796327923498 35.6420675344937 25.1772002834524
   endloop
endfacet
facet normal 0.790775736937702 -0.525226662207628 -0.314341672669833
   outer loop
      vertex 28.5 36.1080565519271 25.4560889570968
      vertex 28.0796327923498 36.3096711621693 24.0617159060117
      vertex 28.5 36.5188895535736 24.7696370325179
   endloop
endfacet
facet normal 0.790775736937689 -0.525226662207656 -0.314341672669817
   outer loop
      vertex 28.5 36.5188895535736 24.7696370325179
      vertex 28.0796327923498 36.3096711621693 24.0617159060117
      vertex 28.5 36.7756601796027 24.3406045796561
   endloop
endfacet
facet normal 0.848644257494747 -0.453885453652414 -0.27164484015702
   outer loop
      vertex 27.5625551542048 35.5978425366949 23.6356952621902
      vertex 28.0796327923498 35.6420675344937 25.1772002834524
      vertex 27.5625551542048 34.9302389090192 24.7511796396309
   endloop
endfacet
facet normal 0.848644257494751 -0.453885453652404 -0.271644840157022
   outer loop
      vertex 28.0796327923498 35.6420675344937 25.1772002834524
      vertex 27.5625551542048 35.5978425366949 23.6356952621902
      vertex 28.0796327923498 36.3096711621693 24.0617159060117
   endloop
endfacet
facet normal 0.897804539570745 -0.377886766137544 -0.226160563989992
   outer loop
      vertex 27.1320571178648 34.8447790879018 23.1849960857144
      vertex 27.5625551542048 34.9302389090192 24.7511796396309
      vertex 27.1320571178648 34.1771754602262 24.3004804631552
   endloop
endfacet
facet normal 0.897804539570749 -0.377886766137535 -0.226160563989993
   outer loop
      vertex 27.5625551542048 34.9302389090192 24.7511796396309
      vertex 27.1320571178648 34.8447790879018 23.1849960857144
      vertex 27.5625551542048 35.5978425366949 23.6356952621902
   endloop
endfacet
facet normal 0.937752132147081 -0.298010449039615 -0.178355574392307
   outer loop
      vertex 26.7925561757396 34.0582082658326 22.7142431600285
      vertex 27.1320571178648 34.1771754602262 24.3004804631552
      vertex 26.7925561757396 33.390604638157 23.8297275374692
   endloop
endfacet
facet normal 0.937752132147078 -0.298010449039626 -0.178355574392306
   outer loop
      vertex 27.1320571178648 34.1771754602262 24.3004804631552
      vertex 26.7925561757396 34.0582082658326 22.7142431600285
      vertex 27.1320571178648 34.8447790879018 23.1849960857144
   endloop
endfacet
facet normal 0.968077118866203 -0.215076141461976 -0.128720415247695
   outer loop
      vertex 26.5475360669135 33.246201351522 22.2282670471803
      vertex 26.7925561757396 33.390604638157 23.8297275374692
      vertex 26.5475360669135 32.5785977238464 23.3437514246211
   endloop
endfacet
facet normal 0.968077118866204 -0.215076141461973 -0.128720415247695
   outer loop
      vertex 26.7925561757396 33.390604638157 23.8297275374692
      vertex 26.5475360669135 33.246201351522 22.2282670471803
      vertex 26.7925561757396 34.0582082658326 22.7142431600285
   endloop
endfacet
facet normal 0.988468324328112 -0.129934861628402 -0.0777644104560868
   outer loop
      vertex 26.3995110292682 32.4170906347316 21.7320545197185
      vertex 26.5475360669135 32.5785977238464 23.3437514246211
      vertex 26.3995110292682 31.749487007056 22.8475388971593
   endloop
endfacet
facet normal 0.988468324328111 -0.129934861628407 -0.0777644104560862
   outer loop
      vertex 26.5475360669135 32.5785977238464 23.3437514246211
      vertex 26.3995110292682 32.4170906347316 21.7320545197185
      vertex 26.5475360669135 33.246201351522 22.2282670471803
   endloop
endfacet
facet normal 0.998716507171053 -0.0434602742845731 -0.0260104375811397
   outer loop
      vertex 26.35 31.5793839133819 21.2306973896578
      vertex 26.3995110292682 31.749487007056 22.8475388971593
      vertex 26.35 30.9117802857063 22.3461817670985
   endloop
endfacet
facet normal 0.998716507171053 -0.0434602742845723 -0.0260104375811398
   outer loop
      vertex 26.3995110292682 31.749487007056 22.8475388971593
      vertex 26.35 31.5793839133819 21.2306973896578
      vertex 26.3995110292682 32.4170906347316 21.7320545197185
   endloop
endfacet
facet normal 0.998716507171053 0.0434602742845737 0.0260104375811399
   outer loop
      vertex 26.3995110292682 30.7416771920322 20.729340259597
      vertex 26.35 30.9117802857063 22.3461817670985
      vertex 26.3995110292682 30.0740735643565 21.8448246370377
   endloop
endfacet
facet normal 0.998716507171053 0.0434602742845735 0.02601043758114
   outer loop
      vertex 26.35 30.9117802857063 22.3461817670985
      vertex 26.3995110292682 30.7416771920322 20.729340259597
      vertex 26.35 31.5793839133819 21.2306973896578
   endloop
endfacet
facet normal 0.988468324328112 0.129934861628406 0.0777644104560823
   outer loop
      vertex 26.5475360669135 29.9125664752418 20.2331277321352
      vertex 26.3995110292682 30.0740735643565 21.8448246370377
      vertex 26.5475360669135 29.2449628475662 21.3486121095759
   endloop
endfacet
facet normal 0.988468324328112 0.129934861628399 0.0777644104560831
   outer loop
      vertex 26.3995110292682 30.0740735643565 21.8448246370377
      vertex 26.5475360669135 29.9125664752418 20.2331277321352
      vertex 26.3995110292682 30.7416771920322 20.729340259597
   endloop
endfacet
facet normal 0.968077118866205 0.215076141461973 0.128720415247689
   outer loop
      vertex 26.7925561757396 29.1005595609311 19.747151619287
      vertex 26.5475360669135 29.2449628475662 21.3486121095759
      vertex 26.7925561757396 28.4329559332555 20.8626359967278
   endloop
endfacet
facet normal 0.968077118866205 0.215076141461974 0.128720415247688
   outer loop
      vertex 26.5475360669135 29.2449628475662 21.3486121095759
      vertex 26.7925561757396 29.1005595609311 19.747151619287
      vertex 26.5475360669135 29.9125664752418 20.2331277321352
   endloop
endfacet
facet normal 0.937752132147082 0.298010449039612 0.178355574392309
   outer loop
      vertex 27.1320571178648 28.3139887388619 19.2763986936011
      vertex 26.7925561757396 28.4329559332555 20.8626359967278
      vertex 27.1320571178648 27.6463851111863 20.3918830710418
   endloop
endfacet
facet normal 0.937752132147077 0.298010449039629 0.178355574392307
   outer loop
      vertex 26.7925561757396 28.4329559332555 20.8626359967278
      vertex 27.1320571178648 28.3139887388619 19.2763986936011
      vertex 26.7925561757396 29.1005595609311 19.747151619287
   endloop
endfacet
facet normal 0.897804539570741 0.377886766137544 0.226160563990007
   outer loop
      vertex 27.5625551542048 27.5609252900689 18.8256995171253
      vertex 27.1320571178648 27.6463851111863 20.3918830710418
      vertex 27.5625551542048 26.8933216623933 19.9411838945661
   endloop
endfacet
facet normal 0.897804539570741 0.377886766137544 0.226160563990007
   outer loop
      vertex 27.1320571178648 27.6463851111863 20.3918830710418
      vertex 27.5625551542048 27.5609252900689 18.8256995171253
      vertex 27.1320571178648 28.3139887388619 19.2763986936011
   endloop
endfacet
facet normal 0.848644257494746 0.453885453652422 0.271644840157008
   outer loop
      vertex 28.0796327923498 26.8490966645945 18.3996788733039
      vertex 27.5625551542048 26.8933216623933 19.9411838945661
      vertex 28.0796327923498 26.1814930369189 19.5151632507446
   endloop
endfacet
facet normal 0.848644257494762 0.453885453652389 0.271644840157015
   outer loop
      vertex 27.5625551542048 26.8933216623933 19.9411838945661
      vertex 28.0796327923498 26.8490966645945 18.3996788733039
      vertex 27.5625551542048 27.5609252900689 18.8256995171253
   endloop
endfacet
facet normal 0.790775736937708 0.525226662207626 0.31434167266982
   outer loop
      vertex 28.5 26.126337021132 18.5498226525212
      vertex 28.0796327923498 26.1814930369189 19.5151632507446
      vertex 28.5 25.7155040194854 19.2362745771001
   endloop
endfacet
facet normal 0.790775736937671 0.525226662207694 0.3143416726698
   outer loop
      vertex 28.0796327923498 26.1814930369189 19.5151632507446
      vertex 28.5 26.126337021132 18.5498226525212
      vertex 28.5 26.383107647161 18.1207901996594
   endloop
endfacet
facet normal 0.790775736937703 0.525226662207644 0.314341672669803
   outer loop
      vertex 28.0796327923498 26.1814930369189 19.5151632507446
      vertex 28.5 26.383107647161 18.1207901996594
      vertex 28.0796327923498 26.8490966645945 18.3996788733039
   endloop
endfacet
facet normal 1.0 -0.0 -0.0
   outer loop
      vertex 28.5 22.7419642301163 16.5243173219378
      vertex 28.5 25.7155040194854 19.2362745771001
      vertex 28.5 22.3311312284698 17.2107692465168
   endloop
endfacet
facet normal 1.0 -0.0 -0.0
   outer loop
      vertex 28.5 25.7155040194854 19.2362745771001
      vertex 28.5 22.7419642301163 16.5243173219378
      vertex 28.5 26.126337021132 18.5498226525212
   endloop
endfacet
facet normal -0.0 -0.513541252058173 0.858064905723643
   outer loop
      vertex 42.6485307690804 25.5778631060776 17.6388612836967
      vertex 42.0 38.0586284128526 25.1084452272099
      vertex 42.0 25.1001394139111 17.3529495521056
   endloop
endfacet
facet normal -2.87563657279759e-015 -0.513541252058173 0.858064905723643
   outer loop
      vertex 42.0 38.0586284128526 25.1084452272099
      vertex 42.6485307690804 25.5778631060776 17.6388612836967
      vertex 42.6485307690804 37.5809047206862 24.8225334956188
   endloop
endfacet
facet normal 1.77765675557361e-015 -0.513541252058173 0.858064905723643
   outer loop
      vertex 42.6485307690804 37.5809047206862 24.8225334956188
      vertex 42.6485307690804 25.5778631060776 17.6388612836967
      vertex 43.3220158839855 26.185807187394 18.0027083104403
   endloop
endfacet
facet normal 5.50245914022364e-015 -0.513541252058173 0.858064905723643
   outer loop
      vertex 42.6485307690804 37.5809047206862 24.8225334956188
      vertex 43.3220158839855 26.185807187394 18.0027083104403
      vertex 43.3220158839855 36.9729606393698 24.4586864688752
   endloop
endfacet
facet normal -4.72717399589857e-014 -0.513541252058173 0.858064905723643
   outer loop
      vertex 43.3220158839855 36.9729606393698 24.4586864688752
      vertex 43.3220158839855 26.185807187394 18.0027083104403
      vertex 43.5 26.383107647161 18.1207901996594
   endloop
endfacet
facet normal -4.24413899519824e-015 -0.513541252058173 0.858064905723643
   outer loop
      vertex 43.3220158839855 36.9729606393698 24.4586864688752
      vertex 43.5 26.383107647161 18.1207901996594
      vertex 43.5 36.7756601796027 24.3406045796561
   endloop
endfacet
facet normal -0.0 -0.513541252058173 0.858064905723643
   outer loop
      vertex 43.5 36.7756601796027 24.3406045796561
      vertex 43.5 26.383107647161 18.1207901996594
      vertex 43.9203672076502 26.8490966645945 18.3996788733039
   endloop
endfacet
facet normal -1.83625868718748e-015 -0.513541252058173 0.858064905723643
   outer loop
      vertex 43.5 36.7756601796027 24.3406045796561
      vertex 43.9203672076502 26.8490966645945 18.3996788733039
      vertex 43.9203672076502 36.3096711621693 24.0617159060116
   endloop
endfacet
facet normal 1.63837675949023e-014 -0.513541252058173 0.858064905723643
   outer loop
      vertex 43.9203672076502 36.3096711621693 24.0617159060116
      vertex 43.9203672076502 26.8490966645945 18.3996788733039
      vertex 44.4374448457952 27.5609252900689 18.8256995171253
   endloop
endfacet
facet normal 8.40825823665111e-015 -0.513541252058173 0.858064905723643
   outer loop
      vertex 43.9203672076502 36.3096711621693 24.0617159060116
      vertex 44.4374448457952 27.5609252900689 18.8256995171253
      vertex 44.4374448457952 35.5978425366949 23.6356952621902
   endloop
endfacet
facet normal -3.03260057692297e-015 -0.513541252058173 0.858064905723643
   outer loop
      vertex 44.4374448457952 35.5978425366949 23.6356952621902
      vertex 44.4374448457952 27.5609252900689 18.8256995171253
      vertex 44.8679428821353 28.3139887388619 19.2763986936011
   endloop
endfacet
facet normal -7.34822937695965e-015 -0.513541252058173 0.858064905723643
   outer loop
      vertex 44.4374448457952 35.5978425366949 23.6356952621902
      vertex 44.8679428821353 28.3139887388619 19.2763986936011
      vertex 44.8679428821353 34.8447790879019 23.1849960857144
   endloop
endfacet
facet normal -2.28920558969159e-014 -0.513541252058173 0.858064905723642
   outer loop
      vertex 44.8679428821353 34.8447790879019 23.1849960857144
      vertex 44.8679428821353 28.3139887388619 19.2763986936011
      vertex 45.2074438242605 29.1005595609311 19.747151619287
   endloop
endfacet
facet normal 6.40727100134618e-015 -0.513541252058172 0.858064905723643
   outer loop
      vertex 44.8679428821353 34.8447790879019 23.1849960857144
      vertex 45.2074438242605 29.1005595609311 19.747151619287
      vertex 45.2074438242605 34.0582082658326 22.7142431600285
   endloop
endfacet
facet normal 5.53559257068401e-015 -0.513541252058172 0.858064905723643
   outer loop
      vertex 45.2074438242605 34.0582082658326 22.7142431600285
      vertex 45.2074438242605 29.1005595609311 19.747151619287
      vertex 45.4524639330866 29.9125664752418 20.2331277321352
   endloop
endfacet
facet normal 1.63236882432737e-014 -0.513541252058172 0.858064905723643
   outer loop
      vertex 45.2074438242605 34.0582082658326 22.7142431600285
      vertex 45.4524639330866 29.9125664752418 20.2331277321352
      vertex 45.4524639330866 33.246201351522 22.2282670471803
   endloop
endfacet
facet normal 3.21461706587709e-014 -0.513541252058172 0.858064905723643
   outer loop
      vertex 45.4524639330866 33.246201351522 22.2282670471803
      vertex 45.4524639330866 29.9125664752418 20.2331277321352
      vertex 45.6004889707318 30.7416771920322 20.729340259597
   endloop
endfacet
facet normal 6.08675983019264e-014 -0.51354125205817 0.858064905723644
   outer loop
      vertex 45.4524639330866 33.246201351522 22.2282670471803
      vertex 45.6004889707318 30.7416771920322 20.729340259597
      vertex 45.6004889707318 32.4170906347316 21.7320545197185
   endloop
endfacet
facet normal -1.07258310051457e-013 -0.51354125205817 0.858064905723644
   outer loop
      vertex 45.6004889707318 32.4170906347316 21.7320545197185
      vertex 45.6004889707318 30.7416771920322 20.729340259597
      vertex 45.65 31.5793839133819 21.2306973896578
   endloop
endfacet
facet normal -0.790775736937687 -0.525226662207659 -0.314341672669819
   outer loop
      vertex 43.3220158839855 36.7161900133407 24.887718921737
      vertex 43.5 36.7756601796027 24.3406045796561
      vertex 43.5 36.5188895535736 24.7696370325179
   endloop
endfacet
facet normal -0.790775736937716 -0.525226662207614 -0.314341672669823
   outer loop
      vertex 43.5 36.7756601796027 24.3406045796561
      vertex 43.3220158839855 36.7161900133407 24.887718921737
      vertex 43.3220158839855 36.9729606393698 24.4586864688752
   endloop
endfacet
facet normal -0.724792787229128 -0.591178334463374 -0.353812934248796
   outer loop
      vertex 42.6485307690804 37.3241340946571 25.2515659484806
      vertex 43.3220158839855 36.9729606393698 24.4586864688752
      vertex 43.3220158839855 36.7161900133407 24.887718921737
   endloop
endfacet
facet normal -0.724792787229124 -0.591178334463383 -0.353812934248789
   outer loop
      vertex 43.3220158839855 36.9729606393698 24.4586864688752
      vertex 42.6485307690804 37.3241340946571 25.2515659484806
      vertex 42.6485307690804 37.5809047206862 24.8225334956188
   endloop
endfacet
facet normal -0.651372482722225 -0.651063717015435 -0.389653596336965
   outer loop
      vertex 42.0 37.8018577868236 25.5374776800717
      vertex 42.6485307690804 37.5809047206862 24.8225334956188
      vertex 42.6485307690804 37.3241340946571 25.2515659484806
   endloop
endfacet
facet normal -0.651372482722219 -0.651063717015447 -0.389653596336955
   outer loop
      vertex 42.6485307690804 37.5809047206862 24.8225334956188
      vertex 42.0 37.8018577868236 25.5374776800717
      vertex 42.0 38.0586284128526 25.1084452272099
   endloop
endfacet
facet normal -0.651372482722209 0.651063717015433 0.389653596336994
   outer loop
      vertex 42.6485307690804 25.3210924800485 18.0678937365585
      vertex 42.0 25.1001394139111 17.3529495521056
      vertex 42.0 24.843368787882 17.7819820049674
   endloop
endfacet
facet normal -0.651372482722231 0.651063717015392 0.389653596337027
   outer loop
      vertex 42.0 25.1001394139111 17.3529495521056
      vertex 42.6485307690804 25.3210924800485 18.0678937365585
      vertex 42.6485307690804 25.5778631060776 17.6388612836967
   endloop
endfacet
facet normal -0.724792787229128 0.591178334463344 0.353812934248845
   outer loop
      vertex 43.3220158839855 25.9290365613649 18.4317407633022
      vertex 42.6485307690804 25.5778631060776 17.6388612836967
      vertex 42.6485307690804 25.3210924800485 18.0678937365585
   endloop
endfacet
facet normal -0.724792787229117 0.591178334463372 0.353812934248823
   outer loop
      vertex 42.6485307690804 25.5778631060776 17.6388612836967
      vertex 43.3220158839855 25.9290365613649 18.4317407633022
      vertex 43.3220158839855 26.185807187394 18.0027083104403
   endloop
endfacet
facet normal -0.790775736937673 0.52522666220765 0.31434167266987
   outer loop
      vertex 43.5 26.1263370211319 18.5498226525212
      vertex 43.3220158839855 26.185807187394 18.0027083104403
      vertex 43.3220158839855 25.9290365613649 18.4317407633022
   endloop
endfacet
facet normal -0.790775736937638 0.525226662207706 0.314341672669864
   outer loop
      vertex 43.3220158839855 26.185807187394 18.0027083104403
      vertex 43.5 26.1263370211319 18.5498226525212
      vertex 43.5 26.383107647161 18.1207901996594
   endloop
endfacet
facet normal 1.71191568860869e-013 -0.513541252058167 0.858064905723646
   outer loop
      vertex 26.3995110292682 30.7416771920322 20.729340259597
      vertex 26.3995110292682 32.4170906347316 21.7320545197185
      vertex 26.35 31.5793839133819 21.2306973896578
   endloop
endfacet
facet normal 1.84447267581592e-015 -0.513541252058167 0.858064905723646
   outer loop
      vertex 26.3995110292682 32.4170906347316 21.7320545197185
      vertex 26.3995110292682 30.7416771920322 20.729340259597
      vertex 26.5475360669135 29.9125664752418 20.2331277321352
   endloop
endfacet
facet normal -9.9233831164032e-014 -0.513541252058172 0.858064905723644
   outer loop
      vertex 26.3995110292682 32.4170906347316 21.7320545197185
      vertex 26.5475360669135 29.9125664752418 20.2331277321352
      vertex 26.5475360669135 33.246201351522 22.2282670471803
   endloop
endfacet
facet normal -4.08092206081824e-015 -0.513541252058172 0.858064905723644
   outer loop
      vertex 26.5475360669135 33.246201351522 22.2282670471803
      vertex 26.5475360669135 29.9125664752418 20.2331277321352
      vertex 26.7925561757396 29.1005595609311 19.747151619287
   endloop
endfacet
facet normal -1.72218435532391e-014 -0.513541252058172 0.858064905723643
   outer loop
      vertex 26.5475360669135 33.246201351522 22.2282670471803
      vertex 26.7925561757396 29.1005595609311 19.747151619287
      vertex 26.7925561757396 34.0582082658326 22.7142431600285
   endloop
endfacet
facet normal 2.56290840053858e-014 -0.513541252058172 0.858064905723643
   outer loop
      vertex 26.7925561757396 34.0582082658326 22.7142431600285
      vertex 26.7925561757396 29.1005595609311 19.747151619287
      vertex 27.1320571178648 28.3139887388619 19.2763986936011
   endloop
endfacet
facet normal -1.18152546564728e-014 -0.513541252058174 0.858064905723642
   outer loop
      vertex 26.7925561757396 34.0582082658326 22.7142431600285
      vertex 27.1320571178648 28.3139887388619 19.2763986936011
      vertex 27.1320571178648 34.8447790879018 23.1849960857144
   endloop
endfacet
facet normal 1.83705734423992e-015 -0.513541252058174 0.858064905723642
   outer loop
      vertex 27.1320571178648 34.8447790879018 23.1849960857144
      vertex 27.1320571178648 28.3139887388619 19.2763986936011
      vertex 27.5625551542048 27.5609252900689 18.8256995171253
   endloop
endfacet
facet normal 1.63760431153837e-014 -0.513541252058173 0.858064905723643
   outer loop
      vertex 27.1320571178648 34.8447790879018 23.1849960857144
      vertex 27.5625551542048 27.5609252900689 18.8256995171253
      vertex 27.5625551542048 35.5978425366949 23.6356952621902
   endloop
endfacet
facet normal -1.76573422969673e-014 -0.513541252058173 0.858064905723643
   outer loop
      vertex 27.5625551542048 35.5978425366949 23.6356952621902
      vertex 27.5625551542048 27.5609252900689 18.8256995171253
      vertex 28.0796327923498 26.8490966645945 18.3996788733039
   endloop
endfacet
facet normal -5.46125586496755e-015 -0.513541252058173 0.858064905723643
   outer loop
      vertex 27.5625551542048 35.5978425366949 23.6356952621902
      vertex 28.0796327923498 26.8490966645945 18.3996788733039
      vertex 28.0796327923498 36.3096711621693 24.0617159060117
   endloop
endfacet
facet normal -5.50877606156242e-015 -0.513541252058173 0.858064905723643
   outer loop
      vertex 28.0796327923498 36.3096711621693 24.0617159060117
      vertex 28.0796327923498 26.8490966645945 18.3996788733039
      vertex 28.5 26.383107647161 18.1207901996594
   endloop
endfacet
facet normal -1.52168383239462e-015 -0.513541252058173 0.858064905723643
   outer loop
      vertex 28.0796327923498 36.3096711621693 24.0617159060117
      vertex 28.5 26.383107647161 18.1207901996594
      vertex 28.5 36.7756601796027 24.3406045796561
   endloop
endfacet
facet normal 5.09296679423789e-014 -0.513541252058172 0.858064905723643
   outer loop
      vertex 28.5 36.7756601796027 24.3406045796561
      vertex 28.5 26.383107647161 18.1207901996594
      vertex 28.6779841160146 26.185807187394 18.0027083104403
   endloop
endfacet
facet normal 1.57572466529943e-014 -0.513541252058173 0.858064905723643
   outer loop
      vertex 28.5 36.7756601796027 24.3406045796561
      vertex 28.6779841160146 26.185807187394 18.0027083104403
      vertex 28.6779841160146 36.9729606393698 24.4586864688752
   endloop
endfacet
facet normal -1.10049182804473e-015 -0.513541252058173 0.858064905723643
   outer loop
      vertex 28.6779841160146 36.9729606393698 24.4586864688752
      vertex 28.6779841160146 26.185807187394 18.0027083104403
      vertex 29.3514692309197 25.5778631060776 17.6388612836967
   endloop
endfacet
facet normal -4.44414188893409e-015 -0.513541252058173 0.858064905723643
   outer loop
      vertex 28.6779841160146 36.9729606393698 24.4586864688752
      vertex 29.3514692309197 25.5778631060776 17.6388612836967
      vertex 29.3514692309197 37.5809047206862 24.8225334956188
   endloop
endfacet
facet normal 9.58545524265864e-016 -0.513541252058173 0.858064905723643
   outer loop
      vertex 29.3514692309197 37.5809047206862 24.8225334956188
      vertex 29.3514692309197 25.5778631060776 17.6388612836967
      vertex 30.0 25.1001394139111 17.3529495521056
   endloop
endfacet
facet normal 2.46722009298146e-015 -0.513541252058173 0.858064905723643
   outer loop
      vertex 29.3514692309197 37.5809047206862 24.8225334956188
      vertex 30.0 25.1001394139111 17.3529495521056
      vertex 30.0 38.0586284128526 25.1084452272099
   endloop
endfacet
facet normal 0.790775736937726 0.525226662207583 0.314341672669849
   outer loop
      vertex 28.6779841160146 26.185807187394 18.0027083104403
      vertex 28.5 26.126337021132 18.5498226525212
      vertex 28.6779841160146 25.9290365613649 18.4317407633022
   endloop
endfacet
facet normal 0.790775736937622 0.525226662207749 0.314341672669833
   outer loop
      vertex 28.5 26.126337021132 18.5498226525212
      vertex 28.6779841160146 26.185807187394 18.0027083104403
      vertex 28.5 26.383107647161 18.1207901996594
   endloop
endfacet
facet normal 0.724792787229128 0.591178334463345 0.353812934248845
   outer loop
      vertex 29.3514692309197 25.5778631060776 17.6388612836967
      vertex 28.6779841160146 25.9290365613649 18.4317407633022
      vertex 29.3514692309197 25.3210924800485 18.0678937365585
   endloop
endfacet
facet normal 0.724792787229123 0.591178334463356 0.353812934248836
   outer loop
      vertex 28.6779841160146 25.9290365613649 18.4317407633022
      vertex 29.3514692309197 25.5778631060776 17.6388612836967
      vertex 28.6779841160146 26.185807187394 18.0027083104403
   endloop
endfacet
facet normal 0.651372482722209 0.651063717015433 0.389653596336995
   outer loop
      vertex 30.0 25.1001394139111 17.3529495521056
      vertex 29.3514692309197 25.3210924800485 18.0678937365585
      vertex 30.0 24.843368787882 17.7819820049674
   endloop
endfacet
facet normal 0.651372482722231 0.651063717015392 0.389653596337027
   outer loop
      vertex 29.3514692309197 25.3210924800485 18.0678937365585
      vertex 30.0 25.1001394139111 17.3529495521056
      vertex 29.3514692309197 25.5778631060776 17.6388612836967
   endloop
endfacet
facet normal 0.651372482722225 -0.651063717015435 -0.389653596336965
   outer loop
      vertex 29.3514692309197 37.5809047206862 24.8225334956188
      vertex 30.0 37.8018577868236 25.5374776800717
      vertex 29.3514692309197 37.3241340946571 25.2515659484806
   endloop
endfacet
facet normal 0.651372482722219 -0.651063717015447 -0.389653596336955
   outer loop
      vertex 30.0 37.8018577868236 25.5374776800717
      vertex 29.3514692309197 37.5809047206862 24.8225334956188
      vertex 30.0 38.0586284128526 25.1084452272099
   endloop
endfacet
facet normal 0.724792787229127 -0.591178334463376 -0.353812934248795
   outer loop
      vertex 28.6779841160146 36.9729606393698 24.4586864688752
      vertex 29.3514692309197 37.3241340946571 25.2515659484806
      vertex 28.6779841160146 36.7161900133407 24.887718921737
   endloop
endfacet
facet normal 0.724792787229124 -0.591178334463383 -0.353812934248789
   outer loop
      vertex 29.3514692309197 37.3241340946571 25.2515659484806
      vertex 28.6779841160146 36.9729606393698 24.4586864688752
      vertex 29.3514692309197 37.5809047206862 24.8225334956188
   endloop
endfacet
facet normal 0.790775736937688 -0.525226662207658 -0.314341672669818
   outer loop
      vertex 28.5 36.7756601796027 24.3406045796561
      vertex 28.6779841160146 36.7161900133407 24.887718921737
      vertex 28.5 36.5188895535736 24.7696370325179
   endloop
endfacet
facet normal 0.790775736937714 -0.525226662207616 -0.314341672669822
   outer loop
      vertex 28.6779841160146 36.7161900133407 24.887718921737
      vertex 28.5 36.7756601796027 24.3406045796561
      vertex 28.6779841160146 36.9729606393698 24.4586864688752
   endloop
endfacet
facet normal -0.0 -0.51354125205817 0.858064905723644
   outer loop
      vertex 45.5 24.9501916139666 12.834638227326
      vertex 26.5 44.3004096992921 24.4155048457507
      vertex 26.5 24.9501916139666 12.834638227326
   endloop
endfacet
facet normal -0.0 -0.51354125205817 0.858064905723644
   outer loop
      vertex 26.5 44.3004096992921 24.4155048457507
      vertex 45.5 24.9501916139666 12.834638227326
      vertex 45.5 44.3004096992921 24.4155048457507
   endloop
endfacet
facet normal 1.0 -0.0 -0.0
   outer loop
      vertex 26.5 24.9501916139666 12.834638227326
      vertex 26.5 43.3760354455874 25.9600216760532
      vertex 26.5 24.0258173602619 14.3791550576285
   endloop
endfacet
facet normal 1.0 -0.0 -0.0
   outer loop
      vertex 26.5 43.3760354455874 25.9600216760532
      vertex 26.5 24.9501916139666 12.834638227326
      vertex 26.5 44.3004096992921 24.4155048457507
   endloop
endfacet
facet normal -1.0 0.0 0.0
   outer loop
      vertex 45.5 43.3760354455874 25.9600216760532
      vertex 45.5 24.9501916139666 12.834638227326
      vertex 45.5 24.0258173602619 14.3791550576285
   endloop
endfacet
facet normal -1.0 0.0 0.0
   outer loop
      vertex 45.5 24.9501916139666 12.834638227326
      vertex 45.5 43.3760354455874 25.9600216760532
      vertex 45.5 44.3004096992921 24.4155048457507
   endloop
endfacet
facet normal -2.67500017224814e-017 0.858064905723662 0.513541252058141
   outer loop
      vertex 28.5 22.3311312284698 17.2107692465168
      vertex 30.0 22.7419642301163 16.5243173219378
      vertex 28.5 22.7419642301163 16.5243173219378
   endloop
endfacet
facet normal -0.0 0.858064905723662 0.513541252058141
   outer loop
      vertex 30.0 22.7419642301163 16.5243173219378
      vertex 28.5 22.3311312284698 17.2107692465168
      vertex 42.0 22.7419642301163 16.5243173219378
   endloop
endfacet
facet normal 4.280000275597e-016 0.858064905723662 0.513541252058141
   outer loop
      vertex 42.0 22.7419642301163 16.5243173219378
      vertex 28.5 22.3311312284698 17.2107692465168
      vertex 43.5 22.7419642301163 16.5243173219378
   endloop
endfacet
facet normal -8.56000055119403e-018 0.858064905723662 0.513541252058141
   outer loop
      vertex 43.5 22.7419642301163 16.5243173219378
      vertex 28.5 22.3311312284698 17.2107692465168
      vertex 43.5 22.3311312284698 17.2107692465168
   endloop
endfacet
facet normal -0.0 0.858064905723639 0.513541252058179
   outer loop
      vertex 26.5 24.0258173602619 14.3791550576285
      vertex 45.5 24.9501916139666 12.834638227326
      vertex 26.5 24.9501916139666 12.834638227326
   endloop
endfacet
facet normal 8.43090235882485e-018 0.858064905723639 0.513541252058179
   outer loop
      vertex 45.5 24.9501916139666 12.834638227326
      vertex 26.5 24.0258173602619 14.3791550576285
      vertex 45.5 24.0258173602619 14.3791550576285
   endloop
endfacet
facet normal 1.09568007055285e-017 0.858064905723643 0.513541252058173
   outer loop
      vertex 42.0 24.0258173602618 14.3791550576287
      vertex 30.0 24.0258173602618 14.3791550576287
      vertex 30.0 22.7419642301163 16.5243173219378
   endloop
endfacet
facet normal 1.09568007055285e-017 0.858064905723643 0.513541252058173
   outer loop
      vertex 42.0 24.0258173602618 14.3791550576287
      vertex 30.0 22.7419642301163 16.5243173219378
      vertex 42.0 22.7419642301163 16.5243173219378
   endloop
endfacet
facet normal -6.03788682909838e-014 0.51354125205817 -0.858064905723644
   outer loop
      vertex 45.5 43.3760354455874 25.9600216760532
      vertex 42.0 24.0258173602618 14.3791550576287
      vertex 42.0 43.3760354455872 25.9600216760534
   endloop
endfacet
facet normal -6.6457277850479e-014 0.513541252058171 -0.858064905723644
   outer loop
      vertex 42.0 24.0258173602618 14.3791550576287
      vertex 45.5 43.3760354455874 25.9600216760532
      vertex 45.5 24.0258173602619 14.3791550576285
   endloop
endfacet
facet normal 6.03788682909843e-014 0.513541252058171 -0.858064905723644
   outer loop
      vertex 30.0 43.3760354455872 25.9600216760534
      vertex 26.5 24.0258173602619 14.3791550576285
      vertex 26.5 43.3760354455874 25.9600216760532
   endloop
endfacet
facet normal 6.64572778504793e-014 0.51354125205817 -0.858064905723644
   outer loop
      vertex 26.5 24.0258173602619 14.3791550576285
      vertex 30.0 43.3760354455872 25.9600216760534
      vertex 30.0 24.0258173602618 14.3791550576287
   endloop
endfacet
facet normal -1.0 -3.35807331758794e-015 -2.42748203359044e-016
   outer loop
      vertex 16.5 41.6813493137953 28.7916358649414
      vertex 16.5000000000002 -15.7166467906075 -13.6017058769745
      vertex 16.5000000000003 -29.1527631149452 -13.6017058769745
   endloop
endfacet
facet normal -1.0 -5.33140619271739e-015 2.4290240142904e-015
   outer loop
      vertex 16.5000000000002 -15.7166467906075 -13.6017058769745
      vertex 16.5 41.6813493137953 28.7916358649414
      vertex 16.5 36.6441348957603 17.7355754948664
   endloop
endfacet
facet normal -1.0 0.0 0.0
   outer loop
      vertex 16.5 36.6441348957603 17.7355754948664
      vertex 16.5 41.6813493137953 28.7916358649414
      vertex 16.5 45.2247839529968 22.8709880154481
   endloop
endfacet
facet normal 4.54250197262731e-016 -0.858064905723639 -0.51354125205818
   outer loop
      vertex 55.5 36.6441348957603 17.7355754948664
      vertex 65.0383317684655 55.3991108940187 -13.6017058769745
      vertex 76.585337152258 55.3991108940187 -13.6017058769745
   endloop
endfacet
facet normal 0.0 -0.858064905723639 -0.51354125205818
   outer loop
      vertex 65.0383317684655 55.3991108940187 -13.6017058769745
      vertex 55.5 36.6441348957603 17.7355754948664
      vertex 46.8397459621556 39.2118411560513 13.4452509662482
   endloop
endfacet
facet normal -1.5777793015961e-017 -0.858064905723639 -0.51354125205818
   outer loop
      vertex 46.8397459621556 39.2118411560513 13.4452509662482
      vertex 55.5 36.6441348957603 17.7355754948664
      vertex 45.5 36.6441348957603 17.7355754948664
   endloop
endfacet
facet normal -0.96592582628907 0.132914256478447 -0.222083539535373
   outer loop
      vertex 45.5 45.2247839529968 22.8709880154481
      vertex 46.8397459621556 39.2118411560513 13.4452509662482
      vertex 45.5 36.6441348957603 17.7355754948664
   endloop
endfacet
facet normal -0.965925826289069 0.132914256478448 -0.222083539535375
   outer loop
      vertex 46.8397459621556 39.2118411560513 13.4452509662482
      vertex 45.5 45.2247839529968 22.8709880154481
      vertex 46.8397459621556 47.7924902132877 18.5806634868299
   endloop
endfacet
facet normal -0.0 0.858064905723642 0.513541252058174
   outer loop
      vertex 16.5 45.2247839529968 22.8709880154481
      vertex 3.50629815244113 67.0532409409367 -13.6017058769745
      vertex -8.04070723135138 67.0532409409367 -13.6017058769745
   endloop
endfacet
facet normal -0.0 0.858064905723642 0.513541252058174
   outer loop
      vertex 3.50629815244113 67.0532409409367 -13.6017058769745
      vertex 16.5 45.2247839529968 22.8709880154481
      vertex 25.1602540378444 47.7924902132876 18.5806634868299
   endloop
endfacet
facet normal -5.04889376510755e-016 0.858064905723642 0.513541252058174
   outer loop
      vertex 25.1602540378444 47.7924902132876 18.5806634868299
      vertex 16.5 45.2247839529968 22.8709880154481
      vertex 26.5 45.2247839529968 22.8709880154481
   endloop
endfacet
facet normal -6.09790905017336e-016 -0.858064905723641 -0.513541252058176
   outer loop
      vertex 25.1602540378444 39.2118411560512 13.4452509662482
      vertex -4.58533715225791 55.3991108940185 -13.6017058769745
      vertex 6.9616682315346 55.3991108940185 -13.6017058769745
   endloop
endfacet
facet normal 0.0 -0.858064905723641 -0.513541252058176
   outer loop
      vertex -4.58533715225791 55.3991108940185 -13.6017058769745
      vertex 25.1602540378444 39.2118411560512 13.4452509662482
      vertex 16.5 36.6441348957603 17.7355754948664
   endloop
endfacet
facet normal 0.0 -0.858064905723641 -0.513541252058176
   outer loop
      vertex 16.5 36.6441348957603 17.7355754948664
      vertex 25.1602540378444 39.2118411560512 13.4452509662482
      vertex 26.5 36.6441348957603 17.7355754948664
   endloop
endfacet
facet normal 0.965925826289068 0.132914256478449 -0.222083539535378
   outer loop
      vertex 25.1602540378444 39.2118411560512 13.4452509662482
      vertex 26.5 45.2247839529968 22.8709880154481
      vertex 26.5 36.6441348957603 17.7355754948664
   endloop
endfacet
facet normal 0.965925826289068 0.132914256478449 -0.222083539535378
   outer loop
      vertex 26.5 45.2247839529968 22.8709880154481
      vertex 25.1602540378444 39.2118411560512 13.4452509662482
      vertex 25.1602540378444 47.7924902132876 18.5806634868299
   endloop
endfacet
facet normal 0.866025403784438 0.256770626029087 -0.429032452861822
   outer loop
      vertex 6.9616682315346 55.3991108940185 -13.6017058769745
      vertex 25.1602540378444 47.7924902132876 18.5806634868299
      vertex 25.1602540378444 39.2118411560512 13.4452509662482
   endloop
endfacet
facet normal 0.866025403784438 0.256770626029088 -0.429032452861821
   outer loop
      vertex 25.1602540378444 47.7924902132876 18.5806634868299
      vertex 6.9616682315346 55.3991108940185 -13.6017058769745
      vertex 3.50629815244113 67.0532409409367 -13.6017058769745
   endloop
endfacet
facet normal -0.866025403784438 -0.256770626029087 0.429032452861822
   outer loop
      vertex 16.5 45.2247839529968 22.8709880154481
      vertex -4.58533715225791 55.3991108940185 -13.6017058769745
      vertex 16.5 36.6441348957603 17.7355754948664
   endloop
endfacet
facet normal -0.866025403784438 -0.256770626029087 0.429032452861822
   outer loop
      vertex -4.58533715225791 55.3991108940185 -13.6017058769745
      vertex 16.5 45.2247839529968 22.8709880154481
      vertex -8.04070723135138 67.0532409409367 -13.6017058769745
   endloop
endfacet
facet normal -0.866025403784438 0.256770626029088 -0.429032452861822
   outer loop
      vertex 46.8397459621556 47.7924902132877 18.5806634868299
      vertex 65.0383317684655 55.3991108940187 -13.6017058769745
      vertex 46.8397459621556 39.2118411560513 13.4452509662482
   endloop
endfacet
facet normal -0.866025403784438 0.256770626029088 -0.429032452861822
   outer loop
      vertex 65.0383317684655 55.3991108940187 -13.6017058769745
      vertex 46.8397459621556 47.7924902132877 18.5806634868299
      vertex 68.4937018475589 67.0532409409367 -13.6017058769745
   endloop
endfacet
facet normal -0.0 -0.0 1.0
   outer loop
      vertex -8.63115480460743 49.5720458705594 -18.6017058769742
      vertex 7.55211580479065 72.8803059643958 -18.6017058769742
      vertex -15.5418949627944 72.8803059643958 -18.6017058769742
   endloop
endfacet
facet normal -0.0 -0.0 1.0
   outer loop
      vertex 7.55211580479065 72.8803059643958 -18.6017058769742
      vertex -8.63115480460743 49.5720458705594 -18.6017058769742
      vertex 14.4628559629776 49.5720458705594 -18.6017058769742
   endloop
endfacet
facet normal -0.0 -0.0 1.0
   outer loop
      vertex 80.6311548046076 49.5720458705596 -18.6017058769742
      vertex 64.4478841952094 72.8803059643958 -18.6017058769742
      vertex 57.5371440370225 49.5720458705596 -18.6017058769742
   endloop
endfacet
facet normal -0.0 -0.0 1.0
   outer loop
      vertex 64.4478841952094 72.8803059643958 -18.6017058769742
      vertex 80.6311548046076 49.5720458705596 -18.6017058769742
      vertex 87.5418949627944 72.8803059643958 -18.6017058769742
   endloop
endfacet
facet normal -0.642659514991174 -0.190544163331389 -0.742079287954899
   outer loop
      vertex 7.55211580479065 72.8803059643958 -18.6017058769742
      vertex 6.9616682315346 55.3991108940185 -13.6017058769745
      vertex 3.50629815244113 67.0532409409367 -13.6017058769745
   endloop
endfacet
facet normal -0.642659514991174 -0.190544163331389 -0.742079287954899
   outer loop
      vertex 6.9616682315346 55.3991108940185 -13.6017058769745
      vertex 7.55211580479065 72.8803059643958 -18.6017058769742
      vertex 14.4628559629776 49.5720458705594 -18.6017058769742
   endloop
endfacet
facet normal 0.0 -0.651194668379689 -0.75891073511571
   outer loop
      vertex 7.55211580479065 72.8803059643958 -18.6017058769742
      vertex -8.04070723135138 67.0532409409367 -13.6017058769745
      vertex -15.5418949627944 72.8803059643958 -18.6017058769742
   endloop
endfacet
facet normal 4.5388791634526e-017 -0.651194668379689 -0.75891073511571
   outer loop
      vertex -8.04070723135138 67.0532409409367 -13.6017058769745
      vertex 7.55211580479065 72.8803059643958 -18.6017058769742
      vertex 3.50629815244113 67.0532409409367 -13.6017058769745
   endloop
endfacet
facet normal 1.13471979086315e-017 0.651194668379689 -0.75891073511571
   outer loop
      vertex -4.58533715225791 55.3991108940185 -13.6017058769745
      vertex 14.4628559629776 49.5720458705594 -18.6017058769742
      vertex -8.63115480460743 49.5720458705594 -18.6017058769742
   endloop
endfacet
facet normal 9.07775832690519e-017 0.651194668379689 -0.75891073511571
   outer loop
      vertex 14.4628559629776 49.5720458705594 -18.6017058769742
      vertex -4.58533715225791 55.3991108940185 -13.6017058769745
      vertex 6.9616682315346 55.3991108940185 -13.6017058769745
   endloop
endfacet
facet normal 0.642659514991174 0.190544163331388 -0.742079287954899
   outer loop
      vertex -8.04070723135138 67.0532409409367 -13.6017058769745
      vertex -8.63115480460743 49.5720458705594 -18.6017058769742
      vertex -15.5418949627944 72.8803059643958 -18.6017058769742
   endloop
endfacet
facet normal 0.642659514991174 0.190544163331388 -0.742079287954899
   outer loop
      vertex -8.63115480460743 49.5720458705594 -18.6017058769742
      vertex -8.04070723135138 67.0532409409367 -13.6017058769745
      vertex -4.58533715225791 55.3991108940185 -13.6017058769745
   endloop
endfacet
facet normal 0.642659514991173 -0.190544163331388 -0.7420792879549
   outer loop
      vertex 64.4478841952094 72.8803059643958 -18.6017058769742
      vertex 65.0383317684655 55.3991108940187 -13.6017058769745
      vertex 57.5371440370225 49.5720458705596 -18.6017058769742
   endloop
endfacet
facet normal 0.642659514991173 -0.190544163331388 -0.7420792879549
   outer loop
      vertex 65.0383317684655 55.3991108940187 -13.6017058769745
      vertex 64.4478841952094 72.8803059643958 -18.6017058769742
      vertex 68.4937018475589 67.0532409409367 -13.6017058769745
   endloop
endfacet
facet normal -1.13471979086316e-017 -0.651194668379692 -0.758910735115707
   outer loop
      vertex 87.5418949627944 72.8803059643958 -18.6017058769742
      vertex 68.4937018475589 67.0532409409367 -13.6017058769745
      vertex 64.4478841952094 72.8803059643958 -18.6017058769742
   endloop
endfacet
facet normal 0.0 -0.651194668379692 -0.758910735115707
   outer loop
      vertex 68.4937018475589 67.0532409409367 -13.6017058769745
      vertex 87.5418949627944 72.8803059643958 -18.6017058769742
      vertex 80.0407072313514 67.0532409409367 -13.6017058769745
   endloop
endfacet
facet normal -0.642659514991174 0.190544163331388 -0.7420792879549
   outer loop
      vertex 80.0407072313514 67.0532409409367 -13.6017058769745
      vertex 80.6311548046076 49.5720458705596 -18.6017058769742
      vertex 76.585337152258 55.3991108940187 -13.6017058769745
   endloop
endfacet
facet normal -0.642659514991174 0.190544163331388 -0.7420792879549
   outer loop
      vertex 80.6311548046076 49.5720458705596 -18.6017058769742
      vertex 80.0407072313514 67.0532409409367 -13.6017058769745
      vertex 87.5418949627944 72.8803059643958 -18.6017058769742
   endloop
endfacet
facet normal 5.67359895431582e-018 0.651194668379693 -0.758910735115707
   outer loop
      vertex 65.0383317684655 55.3991108940187 -13.6017058769745
      vertex 80.6311548046076 49.5720458705596 -18.6017058769742
      vertex 57.5371440370225 49.5720458705596 -18.6017058769742
   endloop
endfacet
facet normal 4.53887916345266e-017 0.651194668379693 -0.758910735115706
   outer loop
      vertex 80.6311548046076 49.5720458705596 -18.6017058769742
      vertex 65.0383317684655 55.3991108940187 -13.6017058769745
      vertex 76.585337152258 55.3991108940187 -13.6017058769745
   endloop
endfacet
facet normal 3.49646382625175e-017 0.513541252058172 -0.858064905723643
   outer loop
      vertex 45.5 45.2247839529968 22.8709880154481
      vertex 26.5 36.6441348957603 17.7355754948664
      vertex 26.5 45.2247839529968 22.8709880154481
   endloop
endfacet
facet normal -2.16942306117507e-016 0.5135412520582 -0.858064905723627
   outer loop
      vertex 26.5 36.6441348957603 17.7355754948664
      vertex 16.5000000000002 -15.7166467906075 -13.6017058769745
      vertex 16.5 36.6441348957603 17.7355754948664
   endloop
endfacet
facet normal 4.47577223272016e-014 0.513541252058193 -0.858064905723631
   outer loop
      vertex 16.5000000000002 -15.7166467906075 -13.6017058769745
      vertex 26.5 36.6441348957603 17.7355754948664
      vertex 55.4999999999997 -15.7166467906109 -13.6017058769745
   endloop
endfacet
facet normal 4.80758573113535e-016 0.513541252058175 -0.858064905723641
   outer loop
      vertex 55.4999999999997 -15.7166467906109 -13.6017058769745
      vertex 26.5 36.6441348957603 17.7355754948664
      vertex 45.5 36.6441348957603 17.7355754948664
   endloop
endfacet
facet normal 0.0 0.513541252058172 -0.858064905723643
   outer loop
      vertex 45.5 36.6441348957603 17.7355754948664
      vertex 26.5 36.6441348957603 17.7355754948664
      vertex 45.5 45.2247839529968 22.8709880154481
   endloop
endfacet
facet normal -2.16942306117484e-016 0.513541252058175 -0.858064905723641
   outer loop
      vertex 55.4999999999997 -15.7166467906109 -13.6017058769745
      vertex 45.5 36.6441348957603 17.7355754948664
      vertex 55.5 36.6441348957603 17.7355754948664
   endloop
endfacet
facet normal -4.97094928039071e-016 0.858064905723643 0.513541252058173
   outer loop
      vertex 16.5 41.6813493137953 28.7916358649414
      vertex 26.5 45.2247839529968 22.8709880154481
      vertex 16.5 45.2247839529968 22.8709880154481
   endloop
endfacet
facet normal -1.36351297668798e-014 0.858064905723653 0.513541252058156
   outer loop
      vertex 26.5 45.2247839529968 22.8709880154481
      vertex 16.5 41.6813493137953 28.7916358649414
      vertex 26.5 44.3004096992921 24.4155048457507
   endloop
endfacet
facet normal -4.21545117941232e-018 0.858064905723652 0.513541252058157
   outer loop
      vertex 26.5 45.2247839529968 22.8709880154481
      vertex 26.5 44.3004096992921 24.4155048457507
      vertex 45.5 45.2247839529968 22.8709880154481
   endloop
endfacet
facet normal -3.04355575153571e-017 0.858064905723653 0.513541252058156
   outer loop
      vertex 45.5 45.2247839529968 22.8709880154481
      vertex 26.5 44.3004096992921 24.4155048457507
      vertex 55.5 45.2247839529968 22.8709880154481
   endloop
endfacet
facet normal 4.86968920245714e-015 0.858064905723634 0.513541252058188
   outer loop
      vertex 26.5 44.3004096992921 24.4155048457507
      vertex 16.5 41.6813493137953 28.7916358649414
      vertex 26.5 43.3760354455874 25.9600216760532
   endloop
endfacet
facet normal 9.16608728274506e-015 0.858064905723628 0.513541252058198
   outer loop
      vertex 26.5 43.3760354455874 25.9600216760532
      vertex 16.5 41.6813493137953 28.7916358649414
      vertex 30.0 43.3760354455872 25.9600216760534
   endloop
endfacet
facet normal 9.51111172354899e-016 0.858064905723645 0.513541252058169
   outer loop
      vertex 30.0 43.3760354455872 25.9600216760534
      vertex 16.5 41.6813493137953 28.7916358649414
      vertex 28.5 42.0921823154418 28.1051839403625
   endloop
endfacet
facet normal 1.29068758310976e-015 0.858064905723642 0.513541252058174
   outer loop
      vertex 28.5 42.0921823154418 28.1051839403625
      vertex 16.5 41.6813493137953 28.7916358649414
      vertex 28.5 41.6813493137953 28.7916358649414
   endloop
endfacet
facet normal -0.0 0.858064905723645 0.513541252058169
   outer loop
      vertex 30.0 42.0921823154418 28.1051839403625
      vertex 30.0 43.3760354455872 25.9600216760534
      vertex 28.5 42.0921823154418 28.1051839403625
   endloop
endfacet
facet normal 3.47966449627353e-015 0.858064905723643 0.513541252058173
   outer loop
      vertex 55.5 45.2247839529968 22.8709880154481
      vertex 45.5 44.3004096992921 24.4155048457507
      vertex 55.5 41.6813493137953 28.7916358649414
   endloop
endfacet
facet normal 8.43090235882461e-018 0.858064905723652 0.513541252058157
   outer loop
      vertex 45.5 44.3004096992921 24.4155048457507
      vertex 55.5 45.2247839529968 22.8709880154481
      vertex 26.5 44.3004096992921 24.4155048457507
   endloop
endfacet
facet normal -5.3566581227029e-015 0.858064905723634 0.513541252058188
   outer loop
      vertex 55.5 41.6813493137953 28.7916358649414
      vertex 45.5 44.3004096992921 24.4155048457507
      vertex 45.5 43.3760354455874 25.9600216760532
   endloop
endfacet
facet normal -9.166087282745e-015 0.858064905723627 0.513541252058199
   outer loop
      vertex 55.5 41.6813493137953 28.7916358649414
      vertex 45.5 43.3760354455874 25.9600216760532
      vertex 42.0 43.3760354455872 25.9600216760534
   endloop
endfacet
facet normal -9.2733339304603e-016 0.858064905723645 0.513541252058169
   outer loop
      vertex 55.5 41.6813493137953 28.7916358649414
      vertex 42.0 43.3760354455872 25.9600216760534
      vertex 43.5 42.0921823154418 28.1051839403625
   endloop
endfacet
facet normal -8.7654405644228e-017 0.858064905723645 0.513541252058169
   outer loop
      vertex 43.5 42.0921823154418 28.1051839403625
      vertex 42.0 43.3760354455872 25.9600216760534
      vertex 42.0 42.0921823154418 28.1051839403625
   endloop
endfacet
facet normal -1.29403133332507e-015 0.858064905723642 0.513541252058174
   outer loop
      vertex 55.5 41.6813493137953 28.7916358649414
      vertex 43.5 42.0921823154418 28.1051839403625
      vertex 43.5 41.6813493137953 28.7916358649414
   endloop
endfacet
facet normal 1.0 1.67903665879442e-014 -3.04493454618515e-014
   outer loop
      vertex 55.4999999999997 -15.7166467906109 -13.6017058769745
      vertex 55.5 41.6813493137953 28.7916358649414
      vertex 55.4999999999999 -29.1527631149452 -13.6017058769745
   endloop
endfacet
facet normal 1.0 -6.31807263028152e-015 8.38070196517898e-016
   outer loop
      vertex 55.5 41.6813493137953 28.7916358649414
      vertex 55.4999999999997 -15.7166467906109 -13.6017058769745
      vertex 55.5 36.6441348957603 17.7355754948664
   endloop
endfacet
facet normal 1.0 1.67903665879384e-015 -2.80546582491736e-015
   outer loop
      vertex 55.5 41.6813493137953 28.7916358649414
      vertex 55.5 36.6441348957603 17.7355754948664
      vertex 55.5 45.2247839529968 22.8709880154481
   endloop
endfacet
facet normal 0.866025403784438 -0.256770626029087 0.429032452861823
   outer loop
      vertex 76.585337152258 55.3991108940187 -13.6017058769745
      vertex 55.5 45.2247839529968 22.8709880154481
      vertex 55.5 36.6441348957603 17.7355754948664
   endloop
endfacet
facet normal 0.866025403784438 -0.256770626029086 0.429032452861823
   outer loop
      vertex 55.5 45.2247839529968 22.8709880154481
      vertex 76.585337152258 55.3991108940187 -13.6017058769745
      vertex 80.0407072313514 67.0532409409367 -13.6017058769745
   endloop
endfacet
facet normal -0.0 0.858064905723641 0.513541252058176
   outer loop
      vertex 46.8397459621556 47.7924902132877 18.5806634868299
      vertex 80.0407072313514 67.0532409409367 -13.6017058769745
      vertex 68.4937018475589 67.0532409409367 -13.6017058769745
   endloop
endfacet
facet normal -6.70674927439014e-016 0.858064905723641 0.513541252058175
   outer loop
      vertex 80.0407072313514 67.0532409409367 -13.6017058769745
      vertex 46.8397459621556 47.7924902132877 18.5806634868299
      vertex 55.5 45.2247839529968 22.8709880154481
   endloop
endfacet
facet normal -0.0 0.858064905723641 0.513541252058176
   outer loop
      vertex 55.5 45.2247839529968 22.8709880154481
      vertex 46.8397459621556 47.7924902132877 18.5806634868299
      vertex 45.5 45.2247839529968 22.8709880154481
   endloop
endfacet
facet normal 3.89438291446249e-016 -0.513541252058167 0.858064905723647
   outer loop
      vertex 16.5 41.6813493137953 28.7916358649414
      vertex 26.5475360669135 32.5785977238464 23.3437514246211
      vertex 28.5 41.6813493137953 28.7916358649414
   endloop
endfacet
facet normal -1.98444616755743e-014 -0.513541252058178 0.85806490572364
   outer loop
      vertex 26.5475360669135 32.5785977238464 23.3437514246211
      vertex 16.5 41.6813493137953 28.7916358649414
      vertex 26.3995110292682 31.749487007056 22.8475388971593
   endloop
endfacet
facet normal -4.23362258291502e-014 -0.513541252058199 0.858064905723627
   outer loop
      vertex 26.3995110292682 31.749487007056 22.8475388971593
      vertex 16.5 41.6813493137953 28.7916358649414
      vertex 16.5000000000003 -29.1527631149452 -13.6017058769745
   endloop
endfacet
facet normal 1.70836685719455e-011 -0.513541252060048 0.858064905722521
   outer loop
      vertex 26.3995110292682 31.749487007056 22.8475388971593
      vertex 16.5000000000003 -29.1527631149452 -13.6017058769745
      vertex 26.35 30.9117802857063 22.3461817670985
   endloop
endfacet
facet normal 2.79282617271566e-013 -0.513541252058179 0.858064905723639
   outer loop
      vertex 28.5 41.6813493137953 28.7916358649414
      vertex 26.5475360669135 32.5785977238464 23.3437514246211
      vertex 26.7925561757396 33.390604638157 23.8297275374692
   endloop
endfacet
facet normal 5.36356781931473e-014 -0.513541252058176 0.858064905723641
   outer loop
      vertex 28.5 41.6813493137953 28.7916358649414
      vertex 26.7925561757396 33.390604638157 23.8297275374692
      vertex 27.1320571178648 34.1771754602262 24.3004804631552
   endloop
endfacet
facet normal -2.39932704786377e-014 -0.513541252058164 0.858064905723648
   outer loop
      vertex 28.5 41.6813493137953 28.7916358649414
      vertex 27.1320571178648 34.1771754602262 24.3004804631552
      vertex 27.5625551542048 34.9302389090192 24.7511796396309
   endloop
endfacet
facet normal -1.27498240654956e-014 -0.513541252058165 0.858064905723648
   outer loop
      vertex 28.5 41.6813493137953 28.7916358649414
      vertex 27.5625551542048 34.9302389090192 24.7511796396309
      vertex 28.0796327923498 35.6420675344937 25.1772002834524
   endloop
endfacet
facet normal -3.96831768871294e-014 -0.513541252058163 0.858064905723649
   outer loop
      vertex 28.5 41.6813493137953 28.7916358649414
      vertex 28.0796327923498 35.6420675344937 25.1772002834524
      vertex 28.5 36.1080565519271 25.4560889570968
   endloop
endfacet
facet normal -1.8880913627445e-012 -0.513541252058197 0.858064905723629
   outer loop
      vertex 16.5000000000003 -29.1527631149452 -13.6017058769745
      vertex 26.3995110292682 30.0740735643565 21.8448246370377
      vertex 26.35 30.9117802857063 22.3461817670985
   endloop
endfacet
facet normal -8.25666816605411e-013 -0.513541252058076 0.858064905723701
   outer loop
      vertex 26.3995110292682 30.0740735643565 21.8448246370377
      vertex 16.5000000000003 -29.1527631149452 -13.6017058769745
      vertex 26.5475360669135 29.2449628475662 21.3486121095759
   endloop
endfacet
facet normal -1.05998534659806e-013 -0.513541252058191 0.858064905723632
   outer loop
      vertex 26.5475360669135 29.2449628475662 21.3486121095759
      vertex 16.5000000000003 -29.1527631149452 -13.6017058769745
      vertex 28.5 22.3311312284698 17.2107692465168
   endloop
endfacet
facet normal 4.13087955067658e-016 -0.513541252058209 0.858064905723621
   outer loop
      vertex 28.5 22.3311312284698 17.2107692465168
      vertex 16.5000000000003 -29.1527631149452 -13.6017058769745
      vertex 55.4999999999999 -29.1527631149452 -13.6017058769745
   endloop
endfacet
facet normal -0.0 -0.513541252057674 0.858064905723942
   outer loop
      vertex 26.5475360669135 29.2449628475662 21.3486121095759
      vertex 28.5 22.3311312284698 17.2107692465168
      vertex 26.7925561757396 28.4329559332555 20.8626359967278
   endloop
endfacet
facet normal -0.0 -0.513541252058166 0.858064905723647
   outer loop
      vertex 26.7925561757396 28.4329559332555 20.8626359967278
      vertex 28.5 22.3311312284698 17.2107692465168
      vertex 27.1320571178648 27.6463851111863 20.3918830710418
   endloop
endfacet
facet normal 9.17476233741098e-015 -0.513541252058169 0.858064905723645
   outer loop
      vertex 27.1320571178648 27.6463851111863 20.3918830710418
      vertex 28.5 22.3311312284698 17.2107692465168
      vertex 27.5625551542048 26.8933216623933 19.9411838945661
   endloop
endfacet
facet normal -2.53697668191533e-014 -0.513541252058175 0.858064905723642
   outer loop
      vertex 27.5625551542048 26.8933216623933 19.9411838945661
      vertex 28.5 22.3311312284698 17.2107692465168
      vertex 28.0796327923498 26.1814930369189 19.5151632507446
   endloop
endfacet
facet normal -3.98924939465332e-016 -0.51354125205821 0.858064905723621
   outer loop
      vertex 28.5 22.3311312284698 17.2107692465168
      vertex 55.4999999999999 -29.1527631149452 -13.6017058769745
      vertex 43.5 22.3311312284698 17.2107692465168
   endloop
endfacet
facet normal 2.8848789881095e-013 -0.513541252058167 0.858064905723647
   outer loop
      vertex 43.5 22.3311312284698 17.2107692465168
      vertex 55.4999999999999 -29.1527631149452 -13.6017058769745
      vertex 43.5 25.7155040194854 19.2362745771001
   endloop
endfacet
facet normal -2.89710664509541e-013 -0.513541252058199 0.858064905723627
   outer loop
      vertex 43.5 25.7155040194854 19.2362745771001
      vertex 55.4999999999999 -29.1527631149452 -13.6017058769745
      vertex 43.9203672076502 26.1814930369189 19.5151632507446
   endloop
endfacet
facet normal 3.50314311406933e-013 -0.513541252058164 0.858064905723648
   outer loop
      vertex 43.9203672076502 26.1814930369189 19.5151632507446
      vertex 55.4999999999999 -29.1527631149452 -13.6017058769745
      vertex 44.4374448457952 26.8933216623933 19.9411838945661
   endloop
endfacet
facet normal -0.0 -0.513541252058202 0.858064905723625
   outer loop
      vertex 44.4374448457952 26.8933216623933 19.9411838945661
      vertex 55.4999999999999 -29.1527631149452 -13.6017058769745
      vertex 44.8679428821353 27.6463851111863 20.3918830710418
   endloop
endfacet
facet normal -0.0 -0.513541252058192 0.858064905723632
   outer loop
      vertex 44.8679428821353 27.6463851111863 20.3918830710418
      vertex 55.4999999999999 -29.1527631149452 -13.6017058769745
      vertex 45.2074438242605 28.4329559332555 20.8626359967278
   endloop
endfacet
facet normal -0.0 -0.51354125205826 0.858064905723591
   outer loop
      vertex 45.2074438242605 28.4329559332555 20.8626359967278
      vertex 55.4999999999999 -29.1527631149452 -13.6017058769745
      vertex 45.4524639330866 29.2449628475662 21.3486121095759
   endloop
endfacet
facet normal 8.25666816604841e-013 -0.513541252058031 0.858064905723728
   outer loop
      vertex 45.4524639330866 29.2449628475662 21.3486121095759
      vertex 55.4999999999999 -29.1527631149452 -13.6017058769745
      vertex 45.6004889707318 30.0740735643565 21.8448246370377
   endloop
endfacet
facet normal -0.0 -0.513541252058197 0.858064905723629
   outer loop
      vertex 45.6004889707318 30.0740735643565 21.8448246370377
      vertex 55.4999999999999 -29.1527631149452 -13.6017058769745
      vertex 45.65 30.9117802857063 22.3461817670985
   endloop
endfacet
facet normal 3.70376317613208e-014 -0.513541252058163 0.858064905723649
   outer loop
      vertex 43.9203672076502 35.6420675344937 25.1772002834524
      vertex 43.5 41.6813493137953 28.7916358649414
      vertex 43.5 36.1080565519271 25.4560889570968
   endloop
endfacet
facet normal -3.31775807407701e-016 -0.513541252058165 0.858064905723648
   outer loop
      vertex 43.5 41.6813493137953 28.7916358649414
      vertex 43.9203672076502 35.6420675344937 25.1772002834524
      vertex 55.5 41.6813493137953 28.7916358649414
   endloop
endfacet
facet normal 1.79862272111728e-015 -0.513541252058165 0.858064905723648
   outer loop
      vertex 55.5 41.6813493137953 28.7916358649414
      vertex 43.9203672076502 35.6420675344937 25.1772002834524
      vertex 44.4374448457952 34.9302389090192 24.7511796396309
   endloop
endfacet
facet normal 3.67988715512217e-015 -0.513541252058174 0.858064905723642
   outer loop
      vertex 55.5 41.6813493137953 28.7916358649414
      vertex 44.4374448457952 34.9302389090192 24.7511796396309
      vertex 44.8679428821353 34.1771754602262 24.3004804631552
   endloop
endfacet
facet normal -3.90349865397262e-015 -0.513541252058162 0.85806490572365
   outer loop
      vertex 55.5 41.6813493137953 28.7916358649414
      vertex 44.8679428821353 34.1771754602262 24.3004804631552
      vertex 45.2074438242605 33.390604638157 23.8297275374692
   endloop
endfacet
facet normal -8.61047003644303e-015 -0.513541252058159 0.858064905723651
   outer loop
      vertex 55.5 41.6813493137953 28.7916358649414
      vertex 45.2074438242605 33.390604638157 23.8297275374692
      vertex 45.4524639330866 32.5785977238463 23.343751424621
   endloop
endfacet
facet normal -0.0 -0.513541252058174 0.858064905723642
   outer loop
      vertex 55.5 41.6813493137953 28.7916358649414
      vertex 45.4524639330866 32.5785977238463 23.343751424621
      vertex 45.6004889707318 31.749487007056 22.8475388971593
   endloop
endfacet
facet normal 1.20428756113041e-014 -0.513541252058179 0.858064905723639
   outer loop
      vertex 55.5 41.6813493137953 28.7916358649414
      vertex 45.6004889707318 31.749487007056 22.8475388971593
      vertex 45.65 30.9117802857063 22.3461817670985
   endloop
endfacet
facet normal 4.39846987872977e-014 -0.513541252058199 0.858064905723627
   outer loop
      vertex 55.5 41.6813493137953 28.7916358649414
      vertex 45.65 30.9117802857063 22.3461817670985
      vertex 55.4999999999999 -29.1527631149452 -13.6017058769745
   endloop
endfacet
facet normal 6.27755535453914e-015 -0.513541252058172 0.858064905723643
   outer loop
      vertex 28.5 25.7155040194854 19.2362745771001
      vertex 28.0796327923498 26.1814930369189 19.5151632507446
      vertex 28.5 22.3311312284698 17.2107692465168
   endloop
endfacet
facet normal 0.0 0.0 -1.0
   outer loop
      vertex 55.4999999999997 -15.7166467906109 -13.6017058769745
      vertex 16.5000000000003 -29.1527631149452 -13.6017058769745
      vertex 16.5000000000002 -15.7166467906075 -13.6017058769745
   endloop
endfacet
facet normal 0.0 0.0 -1.0
   outer loop
      vertex 16.5000000000003 -29.1527631149452 -13.6017058769745
      vertex 55.4999999999997 -15.7166467906109 -13.6017058769745
      vertex 55.4999999999999 -29.1527631149452 -13.6017058769745
   endloop
endfacet
facet normal 0.0 0.0 -1.0
   outer loop
      vertex 64.9999999999993 -8.9985886284455 -18.6017058769742
      vertex 7.00000000000046 -35.870821277114 -18.6017058769742
      vertex 7.00000000000037 -8.9985886284387 -18.6017058769742
   endloop
endfacet
facet normal 0.0 0.0 -1.0
   outer loop
      vertex 7.00000000000046 -35.870821277114 -18.6017058769742
      vertex 64.9999999999993 -8.9985886284455 -18.6017058769742
      vertex 64.9999999999997 -35.870821277114 -18.6017058769742
   endloop
endfacet
facet normal 0.465746432832612 7.82377657539078e-015 0.884918222381988
   outer loop
      vertex 55.4999999999999 -29.1527631149452 -13.6017058769745
      vertex 64.9999999999993 -8.9985886284455 -18.6017058769742
      vertex 55.4999999999997 -15.7166467906109 -13.6017058769745
   endloop
endfacet
facet normal 0.465746432832612 7.84583609581011e-015 0.884918222381988
   outer loop
      vertex 64.9999999999993 -8.9985886284455 -18.6017058769742
      vertex 55.4999999999999 -29.1527631149452 -13.6017058769745
      vertex 64.9999999999997 -35.870821277114 -18.6017058769742
   endloop
endfacet
facet normal 6.86718619565193e-016 -0.59705033513248 0.802203775432523
   outer loop
      vertex 64.9999999999997 -35.870821277114 -18.6017058769742
      vertex 16.5000000000003 -29.1527631149452 -13.6017058769745
      vertex 7.00000000000046 -35.870821277114 -18.6017058769742
   endloop
endfacet
facet normal 5.31586129307072e-016 -0.597050335132481 0.802203775432522
   outer loop
      vertex 16.5000000000003 -29.1527631149452 -13.6017058769745
      vertex 64.9999999999997 -35.870821277114 -18.6017058769742
      vertex 55.4999999999999 -29.1527631149452 -13.6017058769745
   endloop
endfacet
facet normal 7.00109632646911e-014 0.597050335132542 0.802203775432476
   outer loop
      vertex 16.5000000000002 -15.7166467906075 -13.6017058769745
      vertex 64.9999999999993 -8.9985886284455 -18.6017058769742
      vertex 7.00000000000037 -8.9985886284387 -18.6017058769742
   endloop
endfacet
facet normal 5.20701270469207e-014 0.597050335132626 0.802203775432414
   outer loop
      vertex 64.9999999999993 -8.9985886284455 -18.6017058769742
      vertex 16.5000000000002 -15.7166467906075 -13.6017058769745
      vertex 55.4999999999997 -15.7166467906109 -13.6017058769745
   endloop
endfacet
facet normal -0.465746432832608 -1.56622594977195e-015 0.88491822238199
   outer loop
      vertex 7.00000000000046 -35.870821277114 -18.6017058769742
      vertex 16.5000000000002 -15.7166467906075 -13.6017058769745
      vertex 7.00000000000037 -8.9985886284387 -18.6017058769742
   endloop
endfacet
facet normal -0.465746432832608 -1.52946008240641e-015 0.88491822238199
   outer loop
      vertex 16.5000000000002 -15.7166467906075 -13.6017058769745
      vertex 7.00000000000046 -35.870821277114 -18.6017058769742
      vertex 16.5000000000003 -29.1527631149452 -13.6017058769745
   endloop
endfacet
endsolid mic_mont
